<?xml version="1.0" encoding="UTF-8" standalone="no"?>
<!-- Created with Inkscape (http://www.inkscape.org/) -->

<svg
   xmlns:dc="http://purl.org/dc/elements/1.1/"
   xmlns:cc="http://creativecommons.org/ns#"
   xmlns:rdf="http://www.w3.org/1999/02/22-rdf-syntax-ns#"
   xmlns:svg="http://www.w3.org/2000/svg"
   xmlns="http://www.w3.org/2000/svg"
   xmlns:sodipodi="http://sodipodi.sourceforge.net/DTD/sodipodi-0.dtd"
   xmlns:inkscape="http://www.inkscape.org/namespaces/inkscape"
   width="128"
   height="128"
   id="svg2"
   version="1.1"
   inkscape:version="0.48.2 r9819"
   sodipodi:docname="bufandarosa.svg"
   enable-background="new"
   inkscape:export-filename="/mnt/sda3/ernesto/BufandaRosa/img/bufandarosa.png"
   inkscape:export-xdpi="90"
   inkscape:export-ydpi="90">
  <defs
     id="defs4">
    <filter
       inkscape:collect="always"
       id="filter3815">
      <feGaussianBlur
         inkscape:collect="always"
         stdDeviation="1.4333501"
         id="feGaussianBlur3817" />
    </filter>
    <filter
       inkscape:collect="always"
       id="filter3874">
      <feGaussianBlur
         inkscape:collect="always"
         stdDeviation="2.0501165"
         id="feGaussianBlur3876" />
    </filter>
    <filter
       inkscape:collect="always"
       id="filter3011">
      <feBlend
         inkscape:collect="always"
         mode="screen"
         in2="BackgroundImage"
         id="feBlend3013" />
    </filter>
  </defs>
  <sodipodi:namedview
     id="base"
     pagecolor="#ffffff"
     bordercolor="#666666"
     borderopacity="1.0"
     inkscape:pageopacity="0.0"
     inkscape:pageshadow="2"
     inkscape:zoom="1.1222501"
     inkscape:cx="-11.650291"
     inkscape:cy="47.700521"
     inkscape:document-units="px"
     inkscape:current-layer="layer2"
     showgrid="false"
     inkscape:window-width="1024"
     inkscape:window-height="527"
     inkscape:window-x="0"
     inkscape:window-y="27"
     inkscape:window-maximized="1"
     showborder="true"
     inkscape:showpageshadow="false"
     borderlayer="true" />
  <metadata
     id="metadata7">
    <rdf:RDF>
      <cc:Work
         rdf:about="">
        <dc:format>image/svg+xml</dc:format>
        <dc:type
           rdf:resource="http://purl.org/dc/dcmitype/StillImage" />
        <dc:title />
      </cc:Work>
    </rdf:RDF>
  </metadata>
  <g
     inkscape:label="bg"
     inkscape:groupmode="layer"
     id="layer1"
     transform="translate(0,-924.36218)">
    <path
       style="opacity:0.3;fill:#000000;stroke:none;filter:url(#filter3874)"
       d="m 77.999594,934.32227 c -2.721379,-0.20419 -6.949148,3.00005 -8.15625,3.90625 -7.136469,-0.44809 -10.59774,-1.02375 -10.90625,6.0625 l -4.40625,95.18748 0.71875,0 4.875,5.875 4.46875,-4.8437 5.5625,5.5937 4.28125,-5.0312 6.15625,5.0312 2.96875,-5.2187 6.53125,6.1562 2.78125,-6.9062 3.531256,5.0312 2.625,-4.8437 4.65625,4.4687 1.875,-5.875 0.25,0 -0.0937,-0.4375 0,-0.031 -0.0312,0 -25.343756,-101.21878 c -0.197595,-2.03901 -1.10676,-2.81344 -2.34375,-2.90625 z"
       id="path2987-4"
       inkscape:connector-curvature="0" />
    <path
       style="opacity:0.5;fill:#000000;stroke:none;filter:url(#filter3815)"
       d="m 35.180753,946.66995 -1.71754,12.36644 -6.62531,15.7773 73.623137,-0.6746 -11.909847,-19.1046 0.007,-21.26567 z"
       id="path2985-5"
       inkscape:connector-curvature="0"
       sodipodi:nodetypes="ccccccc" />
    <path
       style="fill:#d35f8d;stroke:none"
       d="m 34.893043,946.9975 -1.71754,12.36642 -6.625312,15.77727 73.623139,-0.67451 -11.909847,-19.10464 0.0073,-21.26567 z"
       id="path2985"
       inkscape:connector-curvature="0"
       sodipodi:nodetypes="ccccccc" />
    <path
       style="fill:#de87aa;stroke:none"
       d="m 78.699085,933.75117 c -2.721379,-0.20419 -6.949148,3.00005 -8.15625,3.90625 -7.136469,-0.44809 -10.59774,-1.02375 -10.90625,6.0625 l -4.40625,95.18748 0.71875,0 4.875,5.875 4.46875,-4.8437 5.5625,5.5937 4.28125,-5.0312 6.15625,5.0312 2.96875,-5.2187 6.53125,6.1562 2.78125,-6.9062 3.531255,5.0312 2.625,-4.8437 4.65625,4.4687 1.875,-5.875 0.25,0 -0.0937,-0.4375 0,-0.031 -0.0312,0 -25.343755,-101.21878 c -0.197595,-2.03901 -1.10676,-2.81344 -2.34375,-2.90625 z"
       id="path2987"
       inkscape:connector-curvature="0" />
  </g>
  <g
     inkscape:groupmode="layer"
     id="layer2"
     inkscape:label="qr"
     style="opacity:0.29999999999999999;display:inline;filter:url(#filter3011)">
    <path
       style="fill:#008080"
       d="m 17.573176,95.216322 0,-15.448276 15.448276,0 15.448276,0 0,15.448276 0,15.448278 -15.448276,0 -15.448276,0 0,-15.448278 z m 26.482759,0 0,-11.034483 -11.034483,0 -11.034483,0 0,11.034483 0,11.034478 11.034483,0 11.034483,0 0,-11.034478 z m -17.655173,0 0,-6.62069 6.62069,0 6.62069,0 0,6.62069 0,6.620688 -6.62069,0 -6.62069,0 0,-6.620688 z m 26.482759,11.034478 0,-4.41379 2.206896,0 2.206897,0 0,-2.206895 0,-2.206897 -2.206897,0 -2.206896,0 0,-2.206896 0,-2.206897 2.206896,0 2.206897,0 0,2.206897 0,2.206896 2.206897,0 2.206896,0 0,2.206897 0,2.206895 2.206897,0 2.206896,0 0,2.2069 0,2.20689 4.413793,0 4.413793,0 0,-2.20689 0,-2.2069 -2.206896,0 -2.206897,0 0,-2.206895 0,-2.206897 2.206897,0 2.206896,0 0,-2.206896 0,-2.206897 4.413793,0 4.413794,0 0,-4.413793 0,-4.413793 -4.413794,0 -4.413793,0 0,2.206897 0,2.206896 -4.413793,0 -4.413793,0 0,2.206897 0,2.206896 -2.206896,0 -2.206897,0 0,-2.206896 0,-2.206897 -2.206896,0 -2.206897,0 0,-2.206896 0,-2.206897 -2.206897,0 -2.206896,0 0,-4.413793 0,-4.413793 2.206896,0 2.206897,0 0,2.206896 0,2.206897 4.413793,0 4.413793,0 0,-4.413793 0,-4.413793 -2.206896,0 -2.206897,0 0,-2.206897 0,-2.206896 -8.827586,0 -8.827586,0 0,-2.206897 0,-2.206897 -2.206897,0 -2.206896,0 0,-2.206896 0,-2.206897 2.206896,0 2.206897,0 0,-2.206896 0,-2.206897 4.413793,0 4.413793,0 0,-8.827586 0,-8.827586 8.827586,0 8.827586,0 0,-2.206897 0,-2.206896 -4.413793,0 -4.413793,0 0,-6.62069 0,-6.62069 2.206897,0 2.206896,0 0,4.413794 0,4.413793 2.206897,0 2.206896,0 0,-4.413793 0,-4.413794 2.206897,0 2.206896,0 0,4.413794 0,4.413793 -2.206896,0 -2.206897,0 0,2.206896 0,2.206897 2.206897,0 2.206896,0 0,4.413793 0,4.413793 -4.413793,0 -4.413793,0 0,4.413793 0,4.413793 -2.206896,0 -2.206897,0 0,-2.206896 0,-2.206897 -2.206896,0 -2.206897,0 0,4.413793 0,4.413793 -2.206897,0 -2.206896,0 0,2.206897 0,2.206896 -4.413793,0 -4.413793,0 0,2.206897 0,2.206896 4.413793,0 4.413793,0 0,-2.206896 0,-2.206897 4.413793,0 4.413793,0 0,2.206897 0,2.206896 2.206897,0 2.206896,0 0,-2.206896 0,-2.206897 -2.206896,0 -2.206897,0 0,-2.206896 0,-2.206897 6.62069,0 6.620689,0 0,2.206897 0,2.206896 2.206897,0 2.206896,0 0,-2.206896 0,-2.206897 6.62069,0 6.62069,0 0,4.413793 0,4.413793 4.413793,0 4.413788,0 0,2.206897 0,2.206897 2.2069,0 2.2069,0 0,-4.413794 0,-4.413793 -4.4138,0 -4.413788,0 0,-2.206896 0,-2.206897 4.413788,0 4.4138,0 0,2.206897 0,2.206896 2.20689,0 2.2069,0 0,4.413793 0,4.413794 -2.2069,0 -2.20689,0 0,2.206896 0,2.206897 2.20689,0 2.2069,0 0,4.413793 0,4.413793 -2.2069,0 -2.20689,0 0,4.413793 0,4.413793 -2.2069,0 -2.2069,0 0,-4.413793 0,-4.413793 2.2069,0 2.2069,0 0,-4.413793 0,-4.413793 -2.2069,0 -2.2069,0 0,-2.206897 0,-2.206896 -2.206892,0 -2.206896,0 0,2.206896 0,2.206897 -2.206897,0 -2.206896,0 0,2.206896 0,2.206897 -2.206897,0 -2.206896,0 0,2.206896 0,2.206897 4.413793,0 4.413793,0 0,2.206896 0,2.206897 -4.413793,0 -4.413793,0 0,4.413793 0,4.413793 2.206896,0 2.206897,0 0,2.206897 0,2.206896 4.413793,0 4.413788,0 0,-2.206896 0,-2.206897 4.4138,0 4.41379,0 0,4.413793 0,4.413792 -2.2069,0 -2.20689,0 0,-2.206895 0,-2.206897 -2.2069,0 -2.2069,0 0,2.206897 0,2.206895 -6.620685,0 -6.620689,0 0,4.41379 0,4.4138 -4.413793,0 -4.413794,0 0,-2.2069 0,-2.2069 -2.206896,0 -2.206897,0 0,2.2069 0,2.2069 -6.620689,0 -6.62069,0 0,-2.2069 0,-2.2069 -2.206896,0 -2.206897,0 0,2.2069 0,2.2069 -2.206897,0 -2.206896,0 0,-4.4138 z m 30.896552,-4.41379 0,-4.413792 -2.206897,0 -2.206897,0 0,4.413792 0,4.41379 2.206897,0 2.206897,0 0,-4.41379 z m -8.827587,-24.275861 0,-2.206896 6.62069,0 6.62069,0 0,-2.206897 0,-2.206896 2.206896,0 2.206897,0 0,-4.413793 0,-4.413794 -2.206897,0 -2.206896,0 0,-2.206896 0,-2.206897 -4.413793,0 -4.413794,0 0,4.413793 0,4.413794 2.206897,0 2.206897,0 0,-2.206897 0,-2.206897 2.206896,0 2.206897,0 0,2.206897 0,2.206897 -2.206897,0 -2.206896,0 0,2.206896 0,2.206897 -2.206897,0 -2.206897,0 0,-2.206897 0,-2.206896 -2.206896,0 -2.206897,0 0,2.206896 0,2.206897 -2.206896,0 -2.206897,0 0,-2.206897 0,-2.206896 2.206897,0 2.206896,0 0,-4.413794 0,-4.413793 -2.206896,0 -2.206897,0 0,4.413793 0,4.413794 -2.206896,0 -2.206897,0 0,2.206896 0,2.206897 2.206897,0 2.206896,0 0,4.413793 0,4.413793 2.206897,0 2.206896,0 0,-2.206897 z m 17.655173,30.896551 0,-2.2069 2.206896,0 2.206897,0 0,2.2069 0,2.2069 -2.206897,0 -2.206896,0 0,-2.2069 z m 8.827581,0 0,-2.2069 2.2069,0 2.2069,0 0,2.2069 0,2.2069 -2.2069,0 -2.2069,0 0,-2.2069 z m -83.862064,-35.310344 0,-2.206896 4.413793,0 4.413793,0 0,2.206896 0,2.206897 -4.413793,0 -4.413793,0 0,-2.206897 z m 13.241379,-8.827586 0,-11.034483 2.206897,0 2.206896,0 0,4.413793 0,4.413793 2.206897,0 2.206897,0 0,2.206897 0,2.206897 -2.206897,0 -2.206897,0 0,2.206896 0,2.206897 2.206897,0 2.206897,0 0,-2.206897 0,-2.206896 2.206896,0 2.206897,0 0,2.206896 0,2.206897 2.206896,0 2.206897,0 0,2.206896 0,2.206897 -8.827586,0 -8.827587,0 0,-11.034483 z m -13.241379,-4.413793 0,-6.62069 4.413793,0 4.413793,0 0,4.413793 0,4.413793 -2.206896,0 -2.206897,0 0,2.206897 0,2.206897 -2.206896,0 -2.206897,0 0,-6.62069 z m 0,-26.482759 0,-15.448276 15.448276,0 15.448276,0 0,15.448276 0,15.448276 -15.448276,0 -15.448276,0 0,-15.448276 z m 26.482759,0 0,-11.034482 -11.034483,0 -11.034483,0 0,11.034482 0,11.034483 11.034483,0 11.034483,0 0,-11.034483 z m -17.655173,0 0,-6.620689 6.62069,0 6.62069,0 0,6.620689 0,6.62069 -6.62069,0 -6.62069,0 0,-6.62069 z m 44.137931,13.24138 0,-2.206897 2.206897,0 2.206896,0 0,2.206897 0,2.206896 -2.206896,0 -2.206897,0 0,-2.206896 z m 8.827586,-13.24138 0,-15.448276 15.448276,0 15.448275,0 0,15.448276 0,15.448276 -15.448275,0 -15.448276,0 0,-15.448276 z m 26.482761,0 0,-11.034482 -11.034485,0 -11.034482,0 0,11.034482 0,11.034483 11.034482,0 11.034485,0 0,-11.034483 z m -17.655174,0 0,-6.620689 6.620689,0 6.620685,0 0,6.620689 0,6.62069 -6.620685,0 -6.620689,0 0,-6.62069 z m -35.310345,-6.620689 0,-4.413793 2.206896,0 2.206897,0 0,4.413793 0,4.413793 -2.206897,0 -2.206896,0 0,-4.413793 z"
       id="path2998"
       inkscape:connector-curvature="0" />
  </g>
</svg>
